<svg width="298" height="68" viewBox="0 0 298 68" fill="none" xmlns="http://www.w3.org/2000/svg">
<path fill-rule="evenodd" clip-rule="evenodd" d="M153.575 10C144.973 10 138 16.9732 138 25.575C138 34.1769 144.973 41.1501 153.575 41.1501H158.183C159.653 41.1501 161.074 40.9467 162.422 40.5665C162.877 41.0534 163.442 41.4559 164.11 41.7331L168.559 43.5794C172.226 45.1009 176.051 41.6997 175.181 37.6917L174.125 32.828C173.926 31.9093 173.513 31.1271 172.961 30.5072C173.478 28.9572 173.758 27.2988 173.758 25.575C173.758 16.9732 166.785 10 158.183 10H153.575Z" fill="#ABA2FF"/>
<path fill-rule="evenodd" clip-rule="evenodd" d="M153.16 16.8378C148.415 16.8378 144.568 20.6849 144.568 25.4304C144.568 30.1759 148.415 34.023 153.16 34.023H158.624C159.135 34.023 159.635 33.9784 160.121 33.893L168.766 37.0807L166.596 28.6431C166.996 27.6506 167.217 26.5662 167.217 25.4304C167.217 20.6849 163.37 16.8378 158.624 16.8378H153.16Z" fill="#6F40B4"/>
<path d="M177.632 27.752C177.632 19.784 183.392 13.976 191.312 13.976C197.648 13.976 202.784 17.432 204.032 22.376C204.464 24.392 203.168 25.832 201.248 25.832C199.904 25.832 198.752 25.208 198.224 24.296C196.928 21.416 194.528 19.448 191.504 19.448C187.568 19.448 184.736 22.952 184.736 27.752C184.736 32.504 187.568 36.008 191.504 36.008C194.528 36.008 196.928 34.04 198.224 31.208C198.752 30.248 199.904 29.624 201.248 29.624C203.168 29.624 204.464 31.064 204.032 33.08C202.784 38.024 197.648 41.48 191.312 41.48C183.392 41.48 177.632 35.72 177.632 27.752ZM208.358 38.024V8.936C208.358 6.872 209.702 5.48 211.862 5.48C213.926 5.48 215.318 6.872 215.318 8.936V25.304H221.462C225.014 25.304 227.51 22.904 227.51 19.592V17.432C227.51 15.368 228.902 13.976 230.918 13.976C233.078 13.976 234.47 15.368 234.47 17.432V20.264C234.47 23.336 233.078 25.976 230.822 27.752C233.078 29.528 234.47 32.12 234.47 35.192V38.024C234.47 40.088 233.078 41.48 230.918 41.48C228.902 41.48 227.51 40.088 227.51 38.024V35.864C227.51 32.552 225.014 30.152 221.462 30.152H215.318V38.024C215.318 40.088 213.926 41.48 211.814 41.48C209.75 41.48 208.358 40.088 208.358 38.024Z" fill="white"/>
<path d="M63.592 28.712V9.224C63.592 6.968 65.08 5.48 67.384 5.48C69.64 5.48 71.176 6.92 71.176 9.128V28.712C71.176 32.696 73.864 35.432 78.04 35.432C82.168 35.432 84.904 32.696 84.904 28.712V9.128C84.904 6.92 86.392 5.48 88.696 5.48C90.952 5.48 92.44 6.968 92.44 9.224V28.712C92.44 36.2 86.44 41.48 77.944 41.48C69.496 41.48 63.592 36.2 63.592 28.712ZM97.5753 38.024V17.432C97.5753 15.368 98.9673 13.976 101.079 13.976C102.951 13.976 104.247 15.128 104.487 16.856C106.551 15.128 109.287 13.976 112.359 13.976C118.983 13.976 123.687 18.152 123.687 23.864V38.024C123.687 40.088 122.343 41.48 120.183 41.48C118.119 41.48 116.727 40.088 116.727 38.024V25.112C116.727 21.848 114.231 19.4 110.727 19.4C107.175 19.4 104.535 21.848 104.535 25.112V38.024C104.535 40.088 103.191 41.48 101.031 41.48C98.9673 41.48 97.5753 40.088 97.5753 38.024ZM128.795 38.024V8.936C128.795 6.872 130.139 5.48 132.299 5.48C134.363 5.48 135.755 6.872 135.755 8.936V38.024C135.755 40.088 134.363 41.48 132.251 41.48C130.187 41.48 128.795 40.088 128.795 38.024Z" fill="white"/>
<path d="M1.54806 62.72V52.892C1.54806 52.7053 1.63673 52.612 1.81406 52.612H5.88806C6.81206 52.612 7.58206 52.948 8.19806 53.62C8.81406 54.292 9.12206 55.0713 9.12206 55.958C9.12206 56.8353 8.80473 57.6053 8.17006 58.268C7.54473 58.9307 6.77473 59.262 5.86006 59.262H3.57806V62.72C3.57806 62.9067 3.48473 63 3.29806 63H1.81406C1.63673 63 1.54806 62.9067 1.54806 62.72ZM5.48206 54.39H3.57806V57.498H5.48206C5.9394 57.498 6.31273 57.3533 6.60206 57.064C6.90073 56.7653 7.05006 56.3967 7.05006 55.958C7.05006 55.5193 6.90073 55.1507 6.60206 54.852C6.31273 54.544 5.9394 54.39 5.48206 54.39ZM9.28875 62.706L13.2368 52.878C13.3208 52.7007 13.4374 52.612 13.5868 52.612H14.7628C14.9308 52.612 15.0474 52.7007 15.1128 52.878L19.0608 62.706C19.0981 62.7993 19.0981 62.874 19.0608 62.93C19.0234 62.9767 18.9581 63 18.8648 63H17.3388C17.1708 63 17.0541 62.916 16.9888 62.748L16.3168 61.068H12.0188L11.3608 62.748C11.2954 62.916 11.1788 63 11.0108 63H9.47075C9.26542 63 9.20475 62.902 9.28875 62.706ZM14.1748 55.3L12.6768 59.262H15.6448L14.1748 55.3ZM25.3162 57.218C25.8016 57.4607 26.2169 57.82 26.5622 58.296C26.9076 58.772 27.0802 59.3273 27.0802 59.962C27.0802 60.9233 26.7489 61.698 26.0862 62.286C25.4329 62.8647 24.6069 63.154 23.6082 63.154H23.2442C22.1616 63.154 21.1536 62.776 20.2202 62.02C20.0896 61.9173 20.0709 61.8053 20.1642 61.684L20.9202 60.648C21.0229 60.5267 21.1536 60.5173 21.3122 60.62C21.8909 61.1707 22.5116 61.446 23.1742 61.446H23.5382C23.9302 61.446 24.2802 61.2873 24.5882 60.97C24.8962 60.6433 25.0502 60.256 25.0502 59.808C25.0502 59.332 24.8916 58.954 24.5742 58.674C24.2662 58.394 23.8882 58.254 23.4402 58.254H22.7402C22.5536 58.254 22.4602 58.1793 22.4602 58.03V56.91C22.4602 56.7233 22.5536 56.63 22.7402 56.63H23.4542C23.8182 56.63 24.1309 56.518 24.3922 56.294C24.6536 56.07 24.7842 55.7853 24.7842 55.44C24.7842 55.076 24.6536 54.7867 24.3922 54.572C24.1402 54.348 23.8089 54.2313 23.3982 54.222H23.0762C22.4322 54.2407 21.9236 54.4413 21.5502 54.824C21.4289 54.9267 21.3262 54.9267 21.2422 54.824L20.5282 53.872C20.4349 53.732 20.4536 53.6013 20.5842 53.48C20.7989 53.228 21.1489 53.004 21.6342 52.808C22.1289 52.612 22.6516 52.514 23.2022 52.514H23.5522C23.9349 52.514 24.2942 52.556 24.6302 52.64C24.9662 52.724 25.2929 52.8593 25.6102 53.046C25.9276 53.2327 26.1749 53.508 26.3522 53.872C26.5389 54.2267 26.6322 54.6513 26.6322 55.146C26.6322 56.014 26.1936 56.7047 25.3162 57.218ZM29.1242 62.706V52.92C29.1242 52.7147 29.2269 52.612 29.4322 52.612H35.2702C35.4756 52.6213 35.5782 52.724 35.5782 52.92V54.194C35.5782 54.2873 35.5456 54.3667 35.4802 54.432C35.4242 54.488 35.3542 54.516 35.2702 54.516H31.1822V62.706C31.1729 62.9113 31.0702 63.014 30.8742 63.014H29.4462C29.3529 63.014 29.2736 62.986 29.2082 62.93C29.1522 62.8647 29.1242 62.79 29.1242 62.706ZM46.5753 57.806C46.5753 59.2807 46.048 60.5407 44.9933 61.586C43.948 62.622 42.688 63.14 41.2133 63.14C39.7387 63.14 38.4833 62.622 37.4473 61.586C36.4113 60.5407 35.8933 59.2807 35.8933 57.806C35.8933 56.322 36.4113 55.062 37.4473 54.026C38.4833 52.9807 39.7387 52.458 41.2133 52.458C42.6973 52.458 43.962 52.9807 45.0073 54.026C46.0527 55.062 46.5753 56.322 46.5753 57.806ZM44.5173 57.806C44.5173 56.854 44.2 56.0513 43.5653 55.398C42.94 54.7447 42.156 54.418 41.2133 54.418C40.28 54.418 39.5007 54.7447 38.8753 55.398C38.25 56.0513 37.9373 56.854 37.9373 57.806C37.9373 58.7487 38.25 59.5467 38.8753 60.2C39.5007 60.8533 40.28 61.18 41.2133 61.18C42.156 61.18 42.94 60.8533 43.5653 60.2C44.2 59.5467 44.5173 58.7487 44.5173 57.806ZM48.3469 62.706V52.934C48.3469 52.7193 48.4496 52.612 48.6549 52.612H52.9389C53.7509 52.612 54.4369 52.8873 54.9969 53.438C55.5662 53.9887 55.8509 54.67 55.8509 55.482C55.8509 56.266 55.5849 56.9147 55.0529 57.428C55.4449 57.708 55.7576 58.072 55.9909 58.52C56.2336 58.968 56.3549 59.4393 56.3549 59.934C56.3549 60.7647 56.0656 61.4833 55.4869 62.09C54.9082 62.6967 54.2082 63 53.3869 63H48.6549C48.4496 63 48.3469 62.902 48.3469 62.706ZM54.3529 59.878C54.3529 59.5327 54.2409 59.22 54.0169 58.94C53.7929 58.66 53.5176 58.4967 53.1909 58.45C53.0042 58.422 52.8082 58.408 52.6029 58.408H50.3069V61.376H52.6029C52.7522 61.376 52.9482 61.3573 53.1909 61.32C53.5176 61.2733 53.7929 61.11 54.0169 60.83C54.2409 60.55 54.3529 60.2327 54.3529 59.878ZM53.8909 55.51C53.8909 55.1367 53.7649 54.8333 53.5129 54.6C53.2702 54.3573 52.9529 54.236 52.5609 54.236H50.3069V56.868H52.5469C52.9389 56.868 53.2609 56.742 53.5129 56.49C53.7649 56.2287 53.8909 55.902 53.8909 55.51ZM67.9992 57.806C67.9992 59.2807 67.4718 60.5407 66.4172 61.586C65.3718 62.622 64.1118 63.14 62.6372 63.14C61.1625 63.14 59.9072 62.622 58.8712 61.586C57.8352 60.5407 57.3172 59.2807 57.3172 57.806C57.3172 56.322 57.8352 55.062 58.8712 54.026C59.9072 52.9807 61.1625 52.458 62.6372 52.458C64.1212 52.458 65.3858 52.9807 66.4312 54.026C67.4765 55.062 67.9992 56.322 67.9992 57.806ZM65.9412 57.806C65.9412 56.854 65.6238 56.0513 64.9892 55.398C64.3638 54.7447 63.5798 54.418 62.6372 54.418C61.7038 54.418 60.9245 54.7447 60.2992 55.398C59.6738 56.0513 59.3612 56.854 59.3612 57.806C59.3612 58.7487 59.6738 59.5467 60.2992 60.2C60.9245 60.8533 61.7038 61.18 62.6372 61.18C63.5798 61.18 64.3638 60.8533 64.9892 60.2C65.6238 59.5467 65.9412 58.7487 65.9412 57.806ZM69.7707 62.72V52.892C69.7707 52.7053 69.8594 52.612 70.0367 52.612H74.1107C75.0347 52.612 75.8047 52.948 76.4207 53.62C77.0367 54.292 77.3447 55.0713 77.3447 55.958C77.3447 56.8353 77.0274 57.6053 76.3927 58.268C75.7674 58.9307 74.9974 59.262 74.0827 59.262H71.8007V62.72C71.8007 62.9067 71.7074 63 71.5207 63H70.0367C69.8594 63 69.7707 62.9067 69.7707 62.72ZM73.7047 54.39H71.8007V57.498H73.7047C74.1621 57.498 74.5354 57.3533 74.8247 57.064C75.1234 56.7653 75.2727 56.3967 75.2727 55.958C75.2727 55.5193 75.1234 55.1507 74.8247 54.852C74.5354 54.544 74.1621 54.39 73.7047 54.39ZM85.2814 62.72V58.52H80.6194V62.72C80.6194 62.9067 80.5167 63 80.3114 63H78.8414C78.6641 63 78.5754 62.9067 78.5754 62.72V52.906C78.5754 52.71 78.6641 52.612 78.8414 52.612H80.3534C80.5307 52.612 80.6194 52.7053 80.6194 52.892V56.546H85.2814V52.906C85.2814 52.71 85.3701 52.612 85.5474 52.612H87.0594C87.2274 52.612 87.3114 52.7053 87.3114 52.892V62.72C87.3114 62.9067 87.2134 63 87.0174 63H85.5474C85.3701 63 85.2814 62.9067 85.2814 62.72ZM97.9295 62.72C97.9295 62.9067 98.0229 63 98.2095 63H99.7215C99.8989 63 99.9875 62.9067 99.9875 62.72V52.906C99.9875 52.71 99.8989 52.612 99.7215 52.612H98.2095C98.0229 52.612 97.9295 52.71 97.9295 52.906V62.72ZM89.2635 52.892C89.2635 52.7053 89.3522 52.612 89.5295 52.612H91.0135C91.2002 52.612 91.2935 52.7053 91.2935 52.892V56.35H93.5755C94.4902 56.35 95.2602 56.6813 95.8855 57.344C96.5202 58.0067 96.8375 58.7767 96.8375 59.654C96.8375 60.5407 96.5295 61.32 95.9135 61.992C95.2975 62.664 94.5275 63 93.6035 63H89.5295C89.3522 63 89.2635 62.9067 89.2635 62.72V52.892ZM93.1975 61.222C93.6549 61.222 94.0282 61.0727 94.3175 60.774C94.6162 60.466 94.7655 60.0927 94.7655 59.654C94.7655 59.2153 94.6162 58.8513 94.3175 58.562C94.0282 58.2633 93.6549 58.114 93.1975 58.114H91.2935V61.222H93.1975ZM111.08 52.92V62.692C111.08 62.8973 110.977 63 110.772 63H109.358C109.143 63 109.04 62.8973 109.05 62.692V55.776L104.192 62.776C104.061 62.9253 103.926 63 103.786 63H102.4C102.176 63 102.064 62.8973 102.064 62.692V52.92C102.064 52.836 102.101 52.766 102.176 52.71C102.25 52.6447 102.325 52.612 102.4 52.612H103.814C103.972 52.612 104.075 52.682 104.122 52.822V59.444L108.728 52.822C108.793 52.682 108.928 52.612 109.134 52.612H110.772C110.977 52.612 111.08 52.7147 111.08 52.92ZM106.726 51.38C106.212 51.3707 105.778 51.198 105.424 50.862C105.069 50.526 104.892 50.1387 104.892 49.7C104.892 49.6253 104.92 49.5647 104.976 49.518C105.032 49.462 105.097 49.434 105.172 49.434H105.9C106.049 49.434 106.124 49.504 106.124 49.644C106.124 49.784 106.18 49.9053 106.292 50.008C106.404 50.1107 106.558 50.162 106.754 50.162C106.931 50.162 107.076 50.1153 107.188 50.022C107.3 49.9193 107.356 49.8027 107.356 49.672C107.356 49.5133 107.426 49.434 107.566 49.434H108.28C108.485 49.434 108.588 49.5227 108.588 49.7C108.588 50.148 108.406 50.54 108.042 50.876C107.687 51.2027 107.248 51.3707 106.726 51.38ZM116.49 62.706L120.438 52.878C120.522 52.7007 120.639 52.612 120.788 52.612H121.964C122.132 52.612 122.249 52.7007 122.314 52.878L126.262 62.706C126.299 62.7993 126.299 62.874 126.262 62.93C126.225 62.9767 126.159 63 126.066 63H124.54C124.372 63 124.255 62.916 124.19 62.748L123.518 61.068H119.22L118.562 62.748C118.497 62.916 118.38 63 118.212 63H116.672C116.467 63 116.406 62.902 116.49 62.706ZM121.376 55.3L119.878 59.262H122.846L121.376 55.3ZM134.281 62.72V58.52H129.619V62.72C129.619 62.9067 129.517 63 129.311 63H127.841C127.664 63 127.575 62.9067 127.575 62.72V52.906C127.575 52.71 127.664 52.612 127.841 52.612H129.353C129.531 52.612 129.619 52.7053 129.619 52.892V56.546H134.281V52.906C134.281 52.71 134.37 52.612 134.547 52.612H136.059C136.227 52.612 136.311 52.7053 136.311 52.892V62.72C136.311 62.9067 136.213 63 136.017 63H134.547C134.37 63 134.281 62.9067 134.281 62.72ZM138.404 62.706V52.92C138.404 52.7147 138.506 52.612 138.712 52.612H144.55C144.755 52.6213 144.858 52.724 144.858 52.92V54.194C144.858 54.2873 144.825 54.3667 144.76 54.432C144.704 54.488 144.634 54.516 144.55 54.516H140.462V62.706C140.452 62.9113 140.35 63.014 140.154 63.014H138.726C138.632 63.014 138.553 62.986 138.488 62.93C138.432 62.8647 138.404 62.79 138.404 62.706ZM146.78 60.116V53.074C146.78 52.766 146.92 52.612 147.2 52.612H154.48C154.695 52.612 154.802 52.7007 154.802 52.878V62.72C154.802 62.9067 154.723 63 154.564 63H153.01C152.833 63 152.744 62.9067 152.744 62.72V54.502H148.838V60.116C148.838 60.9 148.549 61.5953 147.97 62.202C147.401 62.7993 146.654 63.098 145.73 63.098C145.543 63.098 145.45 62.9907 145.45 62.776V61.376C145.45 61.236 145.539 61.166 145.716 61.166C146.015 61.166 146.267 61.0633 146.472 60.858C146.677 60.6527 146.78 60.4053 146.78 60.116ZM165.627 52.92V62.692C165.627 62.8973 165.525 63 165.319 63H163.905C163.691 63 163.588 62.8973 163.597 62.692V55.776L158.739 62.776C158.609 62.9253 158.473 63 158.333 63H156.947C156.723 63 156.611 62.8973 156.611 62.692V52.92C156.611 52.836 156.649 52.766 156.723 52.71C156.798 52.6447 156.873 52.612 156.947 52.612H158.361C158.52 52.612 158.623 52.682 158.669 52.822V59.444L163.275 52.822C163.341 52.682 163.476 52.612 163.681 52.612H165.319C165.525 52.612 165.627 52.7147 165.627 52.92ZM176.869 52.92V62.692C176.869 62.8973 176.766 63 176.561 63H175.147C174.932 63 174.829 62.8973 174.839 62.692V55.776L169.981 62.776C169.85 62.9253 169.715 63 169.575 63H168.189C167.965 63 167.853 62.8973 167.853 62.692V52.92C167.853 52.836 167.89 52.766 167.965 52.71C168.039 52.6447 168.114 52.612 168.189 52.612H169.603C169.761 52.612 169.864 52.682 169.911 52.822V59.444L174.517 52.822C174.582 52.682 174.717 52.612 174.923 52.612H176.561C176.766 52.612 176.869 52.7147 176.869 52.92ZM172.515 51.38C172.001 51.3707 171.567 51.198 171.213 50.862C170.858 50.526 170.681 50.1387 170.681 49.7C170.681 49.6253 170.709 49.5647 170.765 49.518C170.821 49.462 170.886 49.434 170.961 49.434H171.689C171.838 49.434 171.913 49.504 171.913 49.644C171.913 49.784 171.969 49.9053 172.081 50.008C172.193 50.1107 172.347 50.162 172.543 50.162C172.72 50.162 172.865 50.1153 172.977 50.022C173.089 49.9193 173.145 49.8027 173.145 49.672C173.145 49.5133 173.215 49.434 173.355 49.434H174.069C174.274 49.434 174.377 49.5227 174.377 49.7C174.377 50.148 174.195 50.54 173.831 50.876C173.476 51.2027 173.037 51.3707 172.515 51.38ZM185.772 60.578C185.959 60.438 186.108 60.438 186.22 60.578L186.92 61.768C187.042 61.9173 187.018 62.0527 186.85 62.174C185.982 62.8273 184.97 63.154 183.812 63.154C182.328 63.154 181.059 62.6313 180.004 61.586C178.959 60.5407 178.436 59.276 178.436 57.792C178.436 56.308 178.959 55.048 180.004 54.012C181.059 52.976 182.328 52.458 183.812 52.458C184.96 52.458 185.978 52.78 186.864 53.424C186.995 53.536 187.023 53.6527 186.948 53.774L186.206 55.034C186.122 55.146 185.992 55.1507 185.814 55.048C185.114 54.6187 184.447 54.404 183.812 54.404C182.87 54.404 182.081 54.7307 181.446 55.384C180.821 56.0373 180.508 56.84 180.508 57.792C180.508 58.744 180.826 59.556 181.46 60.228C182.095 60.9 182.879 61.236 183.812 61.236C184.55 61.236 185.203 61.0167 185.772 60.578ZM188.825 62.762V52.878C188.825 52.7007 188.919 52.612 189.105 52.612H190.645C190.804 52.612 190.883 52.7053 190.883 52.892V57.008C191.033 57.008 191.205 56.9193 191.401 56.742C191.607 56.5647 191.756 56.4153 191.849 56.294C191.943 56.1727 192.078 55.986 192.255 55.734L193.445 54.068C194.155 53.088 195.144 52.598 196.413 52.598C196.572 52.598 196.651 52.682 196.651 52.85V54.18C196.651 54.348 196.567 54.432 196.399 54.432C195.867 54.432 195.345 54.782 194.831 55.482L193.319 57.526L197.477 62.678C197.533 62.7527 197.543 62.8273 197.505 62.902C197.468 62.9673 197.412 63 197.337 63H195.461C195.303 63 195.172 62.93 195.069 62.79L191.947 58.842C191.639 59.1313 191.285 59.276 190.883 59.276V62.762C190.883 62.818 190.86 62.874 190.813 62.93C190.776 62.9767 190.72 63 190.645 63H189.105C188.919 63 188.825 62.9207 188.825 62.762ZM207.983 52.92V62.692C207.983 62.8973 207.88 63 207.675 63H206.261C206.046 63 205.943 62.8973 205.953 62.692V55.776L201.095 62.776C200.964 62.9253 200.829 63 200.689 63H199.303C199.079 63 198.967 62.8973 198.967 62.692V52.92C198.967 52.836 199.004 52.766 199.079 52.71C199.153 52.6447 199.228 52.612 199.303 52.612H200.717C200.875 52.612 200.978 52.682 201.025 52.822V59.444L205.631 52.822C205.696 52.682 205.831 52.612 206.037 52.612H207.675C207.88 52.612 207.983 52.7147 207.983 52.92ZM219.224 52.92V62.692C219.224 62.8973 219.122 63 218.916 63H217.502C217.288 63 217.185 62.8973 217.194 62.692V55.776L212.336 62.776C212.206 62.9253 212.07 63 211.93 63H210.544C210.32 63 210.208 62.8973 210.208 62.692V52.92C210.208 52.836 210.246 52.766 210.32 52.71C210.395 52.6447 210.47 52.612 210.544 52.612H211.958C212.117 52.612 212.22 52.682 212.266 52.822V59.444L216.872 52.822C216.938 52.682 217.073 52.612 217.278 52.612H218.916C219.122 52.612 219.224 52.7147 219.224 52.92ZM214.87 51.38C214.357 51.3707 213.923 51.198 213.568 50.862C213.214 50.526 213.036 50.1387 213.036 49.7C213.036 49.6253 213.064 49.5647 213.12 49.518C213.176 49.462 213.242 49.434 213.316 49.434H214.044C214.194 49.434 214.268 49.504 214.268 49.644C214.268 49.784 214.324 49.9053 214.436 50.008C214.548 50.1107 214.702 50.162 214.898 50.162C215.076 50.162 215.22 50.1153 215.332 50.022C215.444 49.9193 215.5 49.8027 215.5 49.672C215.5 49.5133 215.57 49.434 215.71 49.434H216.424C216.63 49.434 216.732 49.5227 216.732 49.7C216.732 50.148 216.55 50.54 216.186 50.876C215.832 51.2027 215.393 51.3707 214.87 51.38ZM233.076 64.75V63H226.636V64.764C226.636 64.904 226.552 64.974 226.384 64.974H225.096C224.947 64.974 224.872 64.904 224.872 64.764V61.404C224.872 61.2173 224.961 61.124 225.138 61.124H225.852C226.375 60.2467 226.753 59.3787 226.986 58.52C227.229 57.6613 227.369 56.588 227.406 55.3C227.406 55.048 227.411 54.6513 227.42 54.11C227.43 53.5687 227.434 53.1487 227.434 52.85C227.434 52.6913 227.509 52.612 227.658 52.612H233.496C233.664 52.612 233.748 52.6867 233.748 52.836V61.124H234.644C234.719 61.124 234.784 61.1473 234.84 61.194C234.896 61.2407 234.924 61.306 234.924 61.39V64.75C234.924 64.8993 234.84 64.974 234.672 64.974H233.3C233.151 64.974 233.076 64.8993 233.076 64.75ZM229.282 54.474C229.282 54.9593 229.259 55.5287 229.212 56.182C229.147 57.8807 228.732 59.528 227.966 61.124H231.774V54.474H229.282ZM236.755 60.116V53.074C236.755 52.766 236.895 52.612 237.175 52.612H244.455C244.669 52.612 244.777 52.7007 244.777 52.878V62.72C244.777 62.9067 244.697 63 244.539 63H242.985C242.807 63 242.719 62.9067 242.719 62.72V54.502H238.813V60.116C238.813 60.9 238.523 61.5953 237.945 62.202C237.375 62.7993 236.629 63.098 235.705 63.098C235.518 63.098 235.425 62.9907 235.425 62.776V61.376C235.425 61.236 235.513 61.166 235.691 61.166C235.989 61.166 236.241 61.0633 236.447 60.858C236.652 60.6527 236.755 60.4053 236.755 60.116ZM254.328 52.892V62.72C254.328 62.9067 254.234 63 254.048 63H252.55C252.372 63 252.284 62.9067 252.284 62.72V59.402H250.156L248.49 62.762C248.406 62.9207 248.294 63 248.154 63H246.348C246.264 63 246.203 62.9673 246.166 62.902C246.138 62.8367 246.138 62.7713 246.166 62.706L248.084 58.926C247.552 58.6087 247.122 58.1933 246.796 57.68C246.469 57.1573 246.306 56.6067 246.306 56.028C246.306 55.1227 246.618 54.3293 247.244 53.648C247.878 52.9573 248.667 52.612 249.61 52.612H254.048C254.234 52.612 254.328 52.7053 254.328 52.892ZM252.284 54.418H250.1C249.614 54.418 249.208 54.5673 248.882 54.866C248.564 55.1647 248.406 55.538 248.406 55.986C248.406 56.4433 248.564 56.8213 248.882 57.12C249.199 57.4093 249.605 57.554 250.1 57.554H252.284V54.418ZM260.78 62.706V52.934C260.78 52.7193 260.883 52.612 261.088 52.612H265.372C266.184 52.612 266.87 52.8873 267.43 53.438C268 53.9887 268.284 54.67 268.284 55.482C268.284 56.266 268.018 56.9147 267.486 57.428C267.878 57.708 268.191 58.072 268.424 58.52C268.667 58.968 268.788 59.4393 268.788 59.934C268.788 60.7647 268.499 61.4833 267.92 62.09C267.342 62.6967 266.642 63 265.82 63H261.088C260.883 63 260.78 62.902 260.78 62.706ZM266.786 59.878C266.786 59.5327 266.674 59.22 266.45 58.94C266.226 58.66 265.951 58.4967 265.624 58.45C265.438 58.422 265.242 58.408 265.036 58.408H262.74V61.376H265.036C265.186 61.376 265.382 61.3573 265.624 61.32C265.951 61.2733 266.226 61.11 266.45 60.83C266.674 60.55 266.786 60.2327 266.786 59.878ZM266.324 55.51C266.324 55.1367 266.198 54.8333 265.946 54.6C265.704 54.3573 265.386 54.236 264.994 54.236H262.74V56.868H264.98C265.372 56.868 265.694 56.742 265.946 56.49C266.198 56.2287 266.324 55.902 266.324 55.51ZM277.087 60.578C277.273 60.438 277.423 60.438 277.535 60.578L278.235 61.768C278.356 61.9173 278.333 62.0527 278.165 62.174C277.297 62.8273 276.284 63.154 275.127 63.154C273.643 63.154 272.373 62.6313 271.319 61.586C270.273 60.5407 269.751 59.276 269.751 57.792C269.751 56.308 270.273 55.048 271.319 54.012C272.373 52.976 273.643 52.458 275.127 52.458C276.275 52.458 277.292 52.78 278.179 53.424C278.309 53.536 278.337 53.6527 278.263 53.774L277.521 55.034C277.437 55.146 277.306 55.1507 277.129 55.048C276.429 54.6187 275.761 54.404 275.127 54.404C274.184 54.404 273.395 54.7307 272.761 55.384C272.135 56.0373 271.823 56.84 271.823 57.792C271.823 58.744 272.14 59.556 272.775 60.228C273.409 60.9 274.193 61.236 275.127 61.236C275.864 61.236 276.517 61.0167 277.087 60.578ZM280.14 62.72V52.892C280.14 52.7053 280.229 52.612 280.406 52.612H287.252C287.439 52.612 287.532 52.7053 287.532 52.892V54.25C287.532 54.4367 287.439 54.53 287.252 54.53H282.184V56.644H286.048C286.253 56.644 286.356 56.7373 286.356 56.924V58.254C286.356 58.4407 286.253 58.534 286.048 58.534H282.184V61.096H287.378C287.574 61.096 287.672 61.1893 287.672 61.376V62.72C287.672 62.9067 287.574 63 287.378 63H280.406C280.229 63 280.14 62.9067 280.14 62.72ZM297.312 52.906L294.078 57.722L297.424 62.692C297.48 62.7853 297.49 62.86 297.452 62.916C297.415 62.972 297.354 63 297.27 63H295.562C295.413 63 295.287 62.9207 295.184 62.762L292.944 59.402L290.69 62.762C290.588 62.9207 290.466 63 290.326 63H288.632C288.539 63 288.474 62.972 288.436 62.916C288.399 62.86 288.408 62.7853 288.464 62.692L291.796 57.722L288.59 52.92C288.534 52.836 288.52 52.766 288.548 52.71C288.576 52.6447 288.637 52.612 288.73 52.612H290.466C290.597 52.612 290.718 52.696 290.83 52.864L292.944 56.014L295.072 52.85C295.184 52.682 295.306 52.598 295.436 52.598H297.144C297.238 52.598 297.303 52.6307 297.34 52.696C297.378 52.7613 297.368 52.8313 297.312 52.906Z" fill="white"/>
</svg>
