<svg width="770" height="75" viewBox="0 0 770 75" fill="none" xmlns="http://www.w3.org/2000/svg">
<path d="M261.944 55.52V38.672C261.944 38.352 262.096 38.192 262.4 38.192H269.384C270.968 38.192 272.288 38.768 273.344 39.92C274.4 41.072 274.928 42.408 274.928 43.928C274.928 45.432 274.384 46.752 273.296 47.888C272.224 49.024 270.904 49.592 269.336 49.592H265.424V55.52C265.424 55.84 265.264 56 264.944 56H262.4C262.096 56 261.944 55.84 261.944 55.52ZM268.688 41.24H265.424V46.568H268.688C269.472 46.568 270.112 46.32 270.608 45.824C271.12 45.312 271.376 44.68 271.376 43.928C271.376 43.176 271.12 42.544 270.608 42.032C270.112 41.504 269.472 41.24 268.688 41.24ZM275.214 55.496L281.982 38.648C282.126 38.344 282.326 38.192 282.582 38.192H284.598C284.886 38.192 285.086 38.344 285.198 38.648L291.966 55.496C292.03 55.656 292.03 55.784 291.966 55.88C291.902 55.96 291.79 56 291.63 56H289.014C288.726 56 288.526 55.856 288.414 55.568L287.262 52.688H279.894L278.766 55.568C278.654 55.856 278.454 56 278.166 56H275.526C275.174 56 275.07 55.832 275.214 55.496ZM283.59 42.8L281.022 49.592H286.11L283.59 42.8ZM302.689 46.088C303.521 46.504 304.233 47.12 304.825 47.936C305.417 48.752 305.713 49.704 305.713 50.792C305.713 52.44 305.145 53.768 304.009 54.776C302.889 55.768 301.473 56.264 299.761 56.264H299.137C297.281 56.264 295.553 55.616 293.953 54.32C293.729 54.144 293.697 53.952 293.857 53.744L295.153 51.968C295.329 51.76 295.553 51.744 295.825 51.92C296.817 52.864 297.881 53.336 299.017 53.336H299.641C300.313 53.336 300.913 53.064 301.441 52.52C301.969 51.96 302.233 51.296 302.233 50.528C302.233 49.712 301.961 49.064 301.417 48.584C300.889 48.104 300.241 47.864 299.473 47.864H298.273C297.953 47.864 297.793 47.736 297.793 47.48V45.56C297.793 45.24 297.953 45.08 298.273 45.08H299.497C300.121 45.08 300.657 44.888 301.105 44.504C301.553 44.12 301.777 43.632 301.777 43.04C301.777 42.416 301.553 41.92 301.105 41.552C300.673 41.168 300.105 40.968 299.401 40.952H298.849C297.745 40.984 296.873 41.328 296.233 41.984C296.025 42.16 295.849 42.16 295.705 41.984L294.481 40.352C294.321 40.112 294.353 39.888 294.577 39.68C294.945 39.248 295.545 38.864 296.377 38.528C297.225 38.192 298.121 38.024 299.065 38.024H299.665C300.321 38.024 300.937 38.096 301.513 38.24C302.089 38.384 302.649 38.616 303.193 38.936C303.737 39.256 304.161 39.728 304.465 40.352C304.785 40.96 304.945 41.688 304.945 42.536C304.945 44.024 304.193 45.208 302.689 46.088ZM309.217 55.496V38.72C309.217 38.368 309.393 38.192 309.745 38.192H319.753C320.105 38.208 320.281 38.384 320.281 38.72V40.904C320.281 41.064 320.225 41.2 320.113 41.312C320.017 41.408 319.897 41.456 319.753 41.456H312.745V55.496C312.729 55.848 312.553 56.024 312.217 56.024H309.769C309.609 56.024 309.473 55.976 309.361 55.88C309.265 55.768 309.217 55.64 309.217 55.496ZM339.134 47.096C339.134 49.624 338.23 51.784 336.422 53.576C334.63 55.352 332.47 56.24 329.942 56.24C327.414 56.24 325.262 55.352 323.486 53.576C321.71 51.784 320.822 49.624 320.822 47.096C320.822 44.552 321.71 42.392 323.486 40.616C325.262 38.824 327.414 37.928 329.942 37.928C332.486 37.928 334.654 38.824 336.446 40.616C338.238 42.392 339.134 44.552 339.134 47.096ZM335.606 47.096C335.606 45.464 335.062 44.088 333.974 42.968C332.902 41.848 331.558 41.288 329.942 41.288C328.342 41.288 327.006 41.848 325.934 42.968C324.862 44.088 324.326 45.464 324.326 47.096C324.326 48.712 324.862 50.08 325.934 51.2C327.006 52.32 328.342 52.88 329.942 52.88C331.558 52.88 332.902 52.32 333.974 51.2C335.062 50.08 335.606 48.712 335.606 47.096ZM342.171 55.496V38.744C342.171 38.376 342.347 38.192 342.699 38.192H350.043C351.435 38.192 352.611 38.664 353.571 39.608C354.547 40.552 355.035 41.72 355.035 43.112C355.035 44.456 354.579 45.568 353.667 46.448C354.339 46.928 354.875 47.552 355.275 48.32C355.691 49.088 355.899 49.896 355.899 50.744C355.899 52.168 355.403 53.4 354.411 54.44C353.419 55.48 352.219 56 350.811 56H342.699C342.347 56 342.171 55.832 342.171 55.496ZM352.467 50.648C352.467 50.056 352.275 49.52 351.891 49.04C351.507 48.56 351.035 48.28 350.475 48.2C350.155 48.152 349.819 48.128 349.467 48.128H345.531V53.216H349.467C349.723 53.216 350.059 53.184 350.475 53.12C351.035 53.04 351.507 52.76 351.891 52.28C352.275 51.8 352.467 51.256 352.467 50.648ZM351.675 43.16C351.675 42.52 351.459 42 351.027 41.6C350.611 41.184 350.067 40.976 349.395 40.976H345.531V45.488H349.371C350.043 45.488 350.595 45.272 351.027 44.84C351.459 44.392 351.675 43.832 351.675 43.16ZM375.86 47.096C375.86 49.624 374.956 51.784 373.148 53.576C371.356 55.352 369.196 56.24 366.668 56.24C364.14 56.24 361.988 55.352 360.212 53.576C358.436 51.784 357.548 49.624 357.548 47.096C357.548 44.552 358.436 42.392 360.212 40.616C361.988 38.824 364.14 37.928 366.668 37.928C369.212 37.928 371.38 38.824 373.172 40.616C374.964 42.392 375.86 44.552 375.86 47.096ZM372.332 47.096C372.332 45.464 371.788 44.088 370.7 42.968C369.628 41.848 368.284 41.288 366.668 41.288C365.068 41.288 363.732 41.848 362.66 42.968C361.588 44.088 361.052 45.464 361.052 47.096C361.052 48.712 361.588 50.08 362.66 51.2C363.732 52.32 365.068 52.88 366.668 52.88C368.284 52.88 369.628 52.32 370.7 51.2C371.788 50.08 372.332 48.712 372.332 47.096ZM378.897 55.52V38.672C378.897 38.352 379.049 38.192 379.353 38.192H386.337C387.921 38.192 389.241 38.768 390.297 39.92C391.353 41.072 391.881 42.408 391.881 43.928C391.881 45.432 391.337 46.752 390.249 47.888C389.177 49.024 387.857 49.592 386.289 49.592H382.377V55.52C382.377 55.84 382.217 56 381.897 56H379.353C379.049 56 378.897 55.84 378.897 55.52ZM385.641 41.24H382.377V46.568H385.641C386.425 46.568 387.065 46.32 387.561 45.824C388.073 45.312 388.329 44.68 388.329 43.928C388.329 43.176 388.073 42.544 387.561 42.032C387.065 41.504 386.425 41.24 385.641 41.24ZM405.487 55.52V48.32H397.495V55.52C397.495 55.84 397.319 56 396.967 56H394.447C394.143 56 393.991 55.84 393.991 55.52V38.696C393.991 38.36 394.143 38.192 394.447 38.192H397.039C397.343 38.192 397.495 38.352 397.495 38.672V44.936H405.487V38.696C405.487 38.36 405.639 38.192 405.943 38.192H408.535C408.823 38.192 408.967 38.352 408.967 38.672V55.52C408.967 55.84 408.799 56 408.463 56H405.943C405.639 56 405.487 55.84 405.487 55.52ZM427.169 55.52C427.169 55.84 427.329 56 427.649 56H430.241C430.545 56 430.697 55.84 430.697 55.52V38.696C430.697 38.36 430.545 38.192 430.241 38.192H427.649C427.329 38.192 427.169 38.36 427.169 38.696V55.52ZM412.313 38.672C412.313 38.352 412.465 38.192 412.769 38.192H415.313C415.633 38.192 415.793 38.352 415.793 38.672V44.6H419.705C421.273 44.6 422.593 45.168 423.665 46.304C424.753 47.44 425.297 48.76 425.297 50.264C425.297 51.784 424.769 53.12 423.713 54.272C422.657 55.424 421.337 56 419.753 56H412.769C412.465 56 412.313 55.84 412.313 55.52V38.672ZM419.057 52.952C419.841 52.952 420.481 52.696 420.977 52.184C421.489 51.656 421.745 51.016 421.745 50.264C421.745 49.512 421.489 48.888 420.977 48.392C420.481 47.88 419.841 47.624 419.057 47.624H415.793V52.952H419.057ZM449.713 38.72V55.472C449.713 55.824 449.537 56 449.185 56H446.761C446.393 56 446.217 55.824 446.233 55.472V43.616L437.905 55.616C437.681 55.872 437.449 56 437.209 56H434.833C434.449 56 434.257 55.824 434.257 55.472V38.72C434.257 38.576 434.321 38.456 434.449 38.36C434.577 38.248 434.705 38.192 434.833 38.192H437.257C437.529 38.192 437.705 38.312 437.785 38.552V49.904L445.681 38.552C445.793 38.312 446.025 38.192 446.377 38.192H449.185C449.537 38.192 449.713 38.368 449.713 38.72ZM442.249 36.08C441.369 36.064 440.625 35.768 440.017 35.192C439.409 34.616 439.105 33.952 439.105 33.2C439.105 33.072 439.153 32.968 439.249 32.888C439.345 32.792 439.457 32.744 439.585 32.744H440.833C441.089 32.744 441.217 32.864 441.217 33.104C441.217 33.344 441.313 33.552 441.505 33.728C441.697 33.904 441.961 33.992 442.297 33.992C442.601 33.992 442.849 33.912 443.041 33.752C443.233 33.576 443.329 33.376 443.329 33.152C443.329 32.88 443.449 32.744 443.689 32.744H444.913C445.265 32.744 445.441 32.896 445.441 33.2C445.441 33.968 445.129 34.64 444.505 35.216C443.897 35.776 443.145 36.064 442.249 36.08ZM458.987 55.496L465.755 38.648C465.899 38.344 466.099 38.192 466.355 38.192H468.371C468.659 38.192 468.859 38.344 468.971 38.648L475.739 55.496C475.803 55.656 475.803 55.784 475.739 55.88C475.675 55.96 475.563 56 475.403 56H472.787C472.499 56 472.299 55.856 472.187 55.568L471.035 52.688H463.667L462.539 55.568C462.427 55.856 462.227 56 461.939 56H459.299C458.947 56 458.843 55.832 458.987 55.496ZM467.363 42.8L464.795 49.592H469.883L467.363 42.8ZM489.487 55.52V48.32H481.495V55.52C481.495 55.84 481.319 56 480.967 56H478.447C478.143 56 477.991 55.84 477.991 55.52V38.696C477.991 38.36 478.143 38.192 478.447 38.192H481.039C481.343 38.192 481.495 38.352 481.495 38.672V44.936H489.487V38.696C489.487 38.36 489.639 38.192 489.943 38.192H492.535C492.823 38.192 492.967 38.352 492.967 38.672V55.52C492.967 55.84 492.799 56 492.463 56H489.943C489.639 56 489.487 55.84 489.487 55.52ZM496.553 55.496V38.72C496.553 38.368 496.729 38.192 497.081 38.192H507.089C507.441 38.208 507.617 38.384 507.617 38.72V40.904C507.617 41.064 507.561 41.2 507.449 41.312C507.353 41.408 507.233 41.456 507.089 41.456H500.081V55.496C500.065 55.848 499.889 56.024 499.553 56.024H497.105C496.945 56.024 496.809 55.976 496.697 55.88C496.601 55.768 496.553 55.64 496.553 55.496ZM510.913 51.056V38.984C510.913 38.456 511.153 38.192 511.633 38.192H524.113C524.481 38.192 524.665 38.344 524.665 38.648V55.52C524.665 55.84 524.529 56 524.257 56H521.593C521.289 56 521.137 55.84 521.137 55.52V41.432H514.441V51.056C514.441 52.4 513.945 53.592 512.953 54.632C511.977 55.656 510.697 56.168 509.113 56.168C508.793 56.168 508.633 55.984 508.633 55.616V53.216C508.633 52.976 508.785 52.856 509.089 52.856C509.601 52.856 510.033 52.68 510.385 52.328C510.737 51.976 510.913 51.552 510.913 51.056ZM543.223 38.72V55.472C543.223 55.824 543.047 56 542.695 56H540.271C539.903 56 539.727 55.824 539.743 55.472V43.616L531.415 55.616C531.191 55.872 530.959 56 530.719 56H528.343C527.959 56 527.767 55.824 527.767 55.472V38.72C527.767 38.576 527.831 38.456 527.959 38.36C528.087 38.248 528.215 38.192 528.343 38.192H530.767C531.039 38.192 531.215 38.312 531.295 38.552V49.904L539.191 38.552C539.303 38.312 539.535 38.192 539.887 38.192H542.695C543.047 38.192 543.223 38.368 543.223 38.72ZM562.494 38.72V55.472C562.494 55.824 562.318 56 561.966 56H559.542C559.174 56 558.998 55.824 559.014 55.472V43.616L550.686 55.616C550.462 55.872 550.23 56 549.99 56H547.614C547.23 56 547.038 55.824 547.038 55.472V38.72C547.038 38.576 547.102 38.456 547.23 38.36C547.358 38.248 547.486 38.192 547.614 38.192H550.038C550.31 38.192 550.486 38.312 550.566 38.552V49.904L558.462 38.552C558.574 38.312 558.806 38.192 559.158 38.192H561.966C562.318 38.192 562.494 38.368 562.494 38.72ZM555.03 36.08C554.15 36.064 553.406 35.768 552.798 35.192C552.19 34.616 551.886 33.952 551.886 33.2C551.886 33.072 551.934 32.968 552.03 32.888C552.126 32.792 552.238 32.744 552.366 32.744H553.614C553.87 32.744 553.998 32.864 553.998 33.104C553.998 33.344 554.094 33.552 554.286 33.728C554.478 33.904 554.742 33.992 555.078 33.992C555.382 33.992 555.63 33.912 555.822 33.752C556.014 33.576 556.11 33.376 556.11 33.152C556.11 32.88 556.23 32.744 556.47 32.744H557.694C558.046 32.744 558.222 32.896 558.222 33.2C558.222 33.968 557.91 34.64 557.286 35.216C556.678 35.776 555.926 36.064 555.03 36.08ZM577.757 51.848C578.077 51.608 578.333 51.608 578.525 51.848L579.725 53.888C579.933 54.144 579.893 54.376 579.605 54.584C578.117 55.704 576.381 56.264 574.397 56.264C571.853 56.264 569.677 55.368 567.869 53.576C566.077 51.784 565.181 49.616 565.181 47.072C565.181 44.528 566.077 42.368 567.869 40.592C569.677 38.816 571.853 37.928 574.397 37.928C576.365 37.928 578.109 38.48 579.629 39.584C579.853 39.776 579.901 39.976 579.773 40.184L578.501 42.344C578.357 42.536 578.133 42.544 577.829 42.368C576.629 41.632 575.485 41.264 574.397 41.264C572.781 41.264 571.429 41.824 570.341 42.944C569.269 44.064 568.733 45.44 568.733 47.072C568.733 48.704 569.277 50.096 570.365 51.248C571.453 52.4 572.797 52.976 574.397 52.976C575.661 52.976 576.781 52.6 577.757 51.848ZM582.991 55.592V38.648C582.991 38.344 583.151 38.192 583.471 38.192H586.111C586.383 38.192 586.519 38.352 586.519 38.672V45.728C586.775 45.728 587.071 45.576 587.407 45.272C587.759 44.968 588.015 44.712 588.175 44.504C588.335 44.296 588.567 43.976 588.871 43.544L590.911 40.688C592.127 39.008 593.823 38.168 595.999 38.168C596.271 38.168 596.407 38.312 596.407 38.6V40.88C596.407 41.168 596.263 41.312 595.975 41.312C595.063 41.312 594.167 41.912 593.287 43.112L590.695 46.616L597.823 55.448C597.919 55.576 597.935 55.704 597.871 55.832C597.807 55.944 597.711 56 597.583 56H594.367C594.095 56 593.871 55.88 593.695 55.64L588.343 48.872C587.815 49.368 587.207 49.616 586.519 49.616V55.592C586.519 55.688 586.479 55.784 586.399 55.88C586.335 55.96 586.239 56 586.111 56H583.471C583.151 56 582.991 55.864 582.991 55.592ZM615.832 38.72V55.472C615.832 55.824 615.656 56 615.304 56H612.88C612.512 56 612.336 55.824 612.352 55.472V43.616L604.024 55.616C603.8 55.872 603.568 56 603.328 56H600.952C600.568 56 600.376 55.824 600.376 55.472V38.72C600.376 38.576 600.44 38.456 600.568 38.36C600.696 38.248 600.824 38.192 600.952 38.192H603.376C603.648 38.192 603.824 38.312 603.904 38.552V49.904L611.8 38.552C611.912 38.312 612.144 38.192 612.496 38.192H615.304C615.656 38.192 615.832 38.368 615.832 38.72ZM635.103 38.72V55.472C635.103 55.824 634.927 56 634.575 56H632.151C631.783 56 631.607 55.824 631.623 55.472V43.616L623.295 55.616C623.071 55.872 622.839 56 622.599 56H620.223C619.839 56 619.647 55.824 619.647 55.472V38.72C619.647 38.576 619.711 38.456 619.839 38.36C619.967 38.248 620.095 38.192 620.223 38.192H622.647C622.919 38.192 623.095 38.312 623.175 38.552V49.904L631.071 38.552C631.183 38.312 631.415 38.192 631.767 38.192H634.575C634.927 38.192 635.103 38.368 635.103 38.72ZM627.639 36.08C626.759 36.064 626.015 35.768 625.407 35.192C624.799 34.616 624.495 33.952 624.495 33.2C624.495 33.072 624.543 32.968 624.639 32.888C624.735 32.792 624.847 32.744 624.975 32.744H626.223C626.479 32.744 626.607 32.864 626.607 33.104C626.607 33.344 626.703 33.552 626.895 33.728C627.087 33.904 627.351 33.992 627.687 33.992C627.991 33.992 628.239 33.912 628.431 33.752C628.623 33.576 628.719 33.376 628.719 33.152C628.719 32.88 628.839 32.744 629.079 32.744H630.303C630.655 32.744 630.831 32.896 630.831 33.2C630.831 33.968 630.519 34.64 629.895 35.216C629.287 35.776 628.535 36.064 627.639 36.08ZM658.85 59V56H647.81V59.024C647.81 59.264 647.666 59.384 647.378 59.384H645.17C644.914 59.384 644.786 59.264 644.786 59.024V53.264C644.786 52.944 644.938 52.784 645.242 52.784H646.466C647.362 51.28 648.01 49.792 648.41 48.32C648.826 46.848 649.066 45.008 649.13 42.8C649.13 42.368 649.138 41.688 649.154 40.76C649.17 39.832 649.178 39.112 649.178 38.6C649.178 38.328 649.306 38.192 649.562 38.192H659.57C659.858 38.192 660.002 38.32 660.002 38.576V52.784H661.538C661.666 52.784 661.778 52.824 661.874 52.904C661.97 52.984 662.018 53.096 662.018 53.24V59C662.018 59.256 661.874 59.384 661.586 59.384H659.234C658.978 59.384 658.85 59.256 658.85 59ZM652.346 41.384C652.346 42.216 652.306 43.192 652.226 44.312C652.114 47.224 651.402 50.048 650.09 52.784H656.618V41.384H652.346ZM665.155 51.056V38.984C665.155 38.456 665.395 38.192 665.875 38.192H678.355C678.723 38.192 678.907 38.344 678.907 38.648V55.52C678.907 55.84 678.771 56 678.499 56H675.835C675.531 56 675.379 55.84 675.379 55.52V41.432H668.683V51.056C668.683 52.4 668.187 53.592 667.195 54.632C666.219 55.656 664.939 56.168 663.355 56.168C663.035 56.168 662.875 55.984 662.875 55.616V53.216C662.875 52.976 663.027 52.856 663.331 52.856C663.843 52.856 664.275 52.68 664.627 52.328C664.979 51.976 665.155 51.552 665.155 51.056ZM695.281 38.672V55.52C695.281 55.84 695.121 56 694.801 56H692.233C691.929 56 691.777 55.84 691.777 55.52V49.832H688.129L685.273 55.592C685.129 55.864 684.937 56 684.697 56H681.601C681.457 56 681.353 55.944 681.289 55.832C681.241 55.72 681.241 55.608 681.289 55.496L684.577 49.016C683.665 48.472 682.929 47.76 682.369 46.88C681.809 45.984 681.529 45.04 681.529 44.048C681.529 42.496 682.065 41.136 683.137 39.968C684.225 38.784 685.577 38.192 687.193 38.192H694.801C695.121 38.192 695.281 38.352 695.281 38.672ZM691.777 41.288H688.033C687.201 41.288 686.505 41.544 685.945 42.056C685.401 42.568 685.129 43.208 685.129 43.976C685.129 44.76 685.401 45.408 685.945 45.92C686.489 46.416 687.185 46.664 688.033 46.664H691.777V41.288ZM706.342 55.496V38.744C706.342 38.376 706.518 38.192 706.87 38.192H714.214C715.606 38.192 716.782 38.664 717.742 39.608C718.718 40.552 719.206 41.72 719.206 43.112C719.206 44.456 718.75 45.568 717.838 46.448C718.51 46.928 719.046 47.552 719.446 48.32C719.862 49.088 720.07 49.896 720.07 50.744C720.07 52.168 719.574 53.4 718.582 54.44C717.59 55.48 716.39 56 714.982 56H706.87C706.518 56 706.342 55.832 706.342 55.496ZM716.638 50.648C716.638 50.056 716.446 49.52 716.062 49.04C715.678 48.56 715.206 48.28 714.646 48.2C714.326 48.152 713.99 48.128 713.638 48.128H709.702V53.216H713.638C713.894 53.216 714.23 53.184 714.646 53.12C715.206 53.04 715.678 52.76 716.062 52.28C716.446 51.8 716.638 51.256 716.638 50.648ZM715.846 43.16C715.846 42.52 715.63 42 715.198 41.6C714.782 41.184 714.238 40.976 713.566 40.976H709.702V45.488H713.542C714.214 45.488 714.766 45.272 715.198 44.84C715.63 44.392 715.846 43.832 715.846 43.16ZM734.296 51.848C734.616 51.608 734.872 51.608 735.064 51.848L736.264 53.888C736.472 54.144 736.432 54.376 736.144 54.584C734.656 55.704 732.92 56.264 730.936 56.264C728.392 56.264 726.216 55.368 724.408 53.576C722.616 51.784 721.72 49.616 721.72 47.072C721.72 44.528 722.616 42.368 724.408 40.592C726.216 38.816 728.392 37.928 730.936 37.928C732.904 37.928 734.648 38.48 736.168 39.584C736.392 39.776 736.44 39.976 736.312 40.184L735.04 42.344C734.896 42.536 734.672 42.544 734.368 42.368C733.168 41.632 732.024 41.264 730.936 41.264C729.32 41.264 727.968 41.824 726.88 42.944C725.808 44.064 725.272 45.44 725.272 47.072C725.272 48.704 725.816 50.096 726.904 51.248C727.992 52.4 729.336 52.976 730.936 52.976C732.2 52.976 733.32 52.6 734.296 51.848ZM739.53 55.52V38.672C739.53 38.352 739.682 38.192 739.986 38.192H751.722C752.042 38.192 752.202 38.352 752.202 38.672V41C752.202 41.32 752.042 41.48 751.722 41.48H743.034V45.104H749.658C750.01 45.104 750.186 45.264 750.186 45.584V47.864C750.186 48.184 750.01 48.344 749.658 48.344H743.034V52.736H751.938C752.274 52.736 752.442 52.896 752.442 53.216V55.52C752.442 55.84 752.274 56 751.938 56H739.986C739.682 56 739.53 55.84 739.53 55.52ZM768.968 38.696L763.424 46.952L769.16 55.472C769.256 55.632 769.272 55.76 769.208 55.856C769.144 55.952 769.04 56 768.896 56H765.968C765.712 56 765.496 55.864 765.32 55.592L761.48 49.832L757.616 55.592C757.44 55.864 757.232 56 756.992 56H754.088C753.928 56 753.816 55.952 753.752 55.856C753.688 55.76 753.704 55.632 753.8 55.472L759.512 46.952L754.016 38.72C753.92 38.576 753.896 38.456 753.944 38.36C753.992 38.248 754.096 38.192 754.256 38.192H757.232C757.456 38.192 757.664 38.336 757.856 38.624L761.48 44.024L765.128 38.6C765.32 38.312 765.528 38.168 765.752 38.168H768.68C768.84 38.168 768.952 38.224 769.016 38.336C769.08 38.448 769.064 38.568 768.968 38.696Z" fill="white"/>
<path fill-rule="evenodd" clip-rule="evenodd" d="M124.5 14.5C113.178 14.5 104 23.6782 104 35C104 46.3218 113.178 55.5 124.5 55.5H132.5C133.969 55.5 135.401 55.3456 136.782 55.052C136.915 55.1185 137.052 55.1801 137.193 55.2364L148.95 59.9229C152.688 61.413 156.566 58.1015 155.679 54.1763L152.889 41.8306C152.766 41.2845 152.562 40.7871 152.297 40.3439C152.755 38.6402 153 36.8487 153 35C153 23.6782 143.822 14.5 132.5 14.5H124.5Z" fill="#ABA2FF"/>
<path fill-rule="evenodd" clip-rule="evenodd" d="M124.31 23.5C118.063 23.5 113 28.5635 113 34.8096C113 41.0557 118.063 46.1192 124.31 46.1192H132.726C133.307 46.1192 133.877 46.0755 134.434 45.9911L146.159 50.1438L143.198 39.088C143.738 37.7682 144.036 36.3236 144.036 34.8096C144.036 28.5635 138.972 23.5 132.726 23.5H124.31Z" fill="#6F40B4"/>
<path d="M158.176 37.836C158.176 27.212 165.856 19.468 176.416 19.468C184.864 19.468 191.712 24.076 193.376 30.668C193.952 33.356 192.224 35.276 189.664 35.276C187.872 35.276 186.336 34.444 185.632 33.228C183.904 29.388 180.704 26.764 176.672 26.764C171.424 26.764 167.648 31.436 167.648 37.836C167.648 44.172 171.424 48.844 176.672 48.844C180.704 48.844 183.904 46.22 185.632 42.444C186.336 41.164 187.872 40.332 189.664 40.332C192.224 40.332 193.952 42.252 193.376 44.94C191.712 51.532 184.864 56.14 176.416 56.14C165.856 56.14 158.176 48.46 158.176 37.836ZM199.144 51.532V12.748C199.144 9.996 200.936 8.14 203.816 8.14C206.568 8.14 208.424 9.996 208.424 12.748V34.572H216.616C221.352 34.572 224.68 31.372 224.68 26.956V24.076C224.68 21.324 226.536 19.468 229.224 19.468C232.104 19.468 233.96 21.324 233.96 24.076V27.852C233.96 31.948 232.104 35.468 229.096 37.836C232.104 40.204 233.96 43.66 233.96 47.756V51.532C233.96 54.284 232.104 56.14 229.224 56.14C226.536 56.14 224.68 54.284 224.68 51.532V48.652C224.68 44.236 221.352 41.036 216.616 41.036H208.424V51.532C208.424 54.284 206.568 56.14 203.752 56.14C201 56.14 199.144 54.284 199.144 51.532Z" fill="white"/>
<path d="M3.456 39.116V13.132C3.456 10.124 5.44 8.14 8.512 8.14C11.52 8.14 13.568 10.06 13.568 13.004V39.116C13.568 44.428 17.152 48.076 22.72 48.076C28.224 48.076 31.872 44.428 31.872 39.116V13.004C31.872 10.06 33.856 8.14 36.928 8.14C39.936 8.14 41.92 10.124 41.92 13.132V39.116C41.92 49.1 33.92 56.14 22.592 56.14C11.328 56.14 3.456 49.1 3.456 39.116ZM48.767 51.532V24.076C48.767 21.324 50.623 19.468 53.439 19.468C55.935 19.468 57.663 21.004 57.983 23.308C60.735 21.004 64.383 19.468 68.479 19.468C77.311 19.468 83.583 25.036 83.583 32.652V51.532C83.583 54.284 81.791 56.14 78.911 56.14C76.159 56.14 74.303 54.284 74.303 51.532V34.316C74.303 29.964 70.975 26.7 66.303 26.7C61.567 26.7 58.047 29.964 58.047 34.316V51.532C58.047 54.284 56.255 56.14 53.375 56.14C50.623 56.14 48.767 54.284 48.767 51.532ZM90.3935 51.532V12.748C90.3935 9.996 92.1855 8.14 95.0655 8.14C97.8175 8.14 99.6735 9.996 99.6735 12.748V51.532C99.6735 54.284 97.8175 56.14 95.0015 56.14C92.2495 56.14 90.3935 54.284 90.3935 51.532Z" fill="white"/>
</svg>
